# xmcd
#
# Track frame offsets:
#	150
#	21105
#	42900
#	65195
#	82970
#	105545
#	113700
#	138745
#	154230
#	169465
#	183535
#	196520
#	225545
#	235885
#	242920
#	256275
#	267820
#	279070
#	304285
#	329665
#
# Disc length: 4796 seconds
#
# Revision: 2
# Processed by: cddbd v1.5.1PL2 Copyright (c) Steve Scherf et al.
# Submitted via: EasyCDDAExtractor 8.0.2.1
#
DISCID=1a12ba14
DTITLE=Dio - Maple Leaf Gardens Toronto 09-01-88
DYEAR=1988
DGENRE=Hard Rock
TTITLE0=Stand Up And Shout
TTITLE1=Dream Evil
TTITLE2=Night People
TTITLE3=Naked In The Rain
TTITLE4=Guitar Solo
TTITLE5=Naked In The Rain Reprise
TTITLE6=The Last In Line
TTITLE7=Drum Solo
TTITLE8=Heaven and Hell
TTITLE9=Man On The Silver Mountain
TTITLE10=All The Fools Sailed Away
TTITLE11=Keyboard Solo
TTITLE12=All The Fools Sailed Away Reprise
TTITLE13=The Last In Line Reprise
TTITLE14=Rock and Roll Children
TTITLE15=Long Live Rock and Roll
TTITLE16=Rock and Roll Children Reprise
TTITLE17=Rainbow In The Dark
TTITLE18=We Rock
TTITLE19=Don't Talk To Strangers
EXTD=
EXTT0=
EXTT1=
EXTT2=
EXTT3=
EXTT4=
EXTT5=
EXTT6=
EXTT7=
EXTT8=
EXTT9=
EXTT10=
EXTT11=
EXTT12=
EXTT13=
EXTT14=
EXTT15=
EXTT16=
EXTT17=
EXTT18=
EXTT19=
PLAYORDER=
